<!-- bike-anim.svg -->
<svg width="100" viewBox="0 0 640 512" fill="#000"><path d="M312 32c13.3 0 24 10.7 24 24V96h51.8l28.5-57c5.9-11.8 20.2-16.5 32-10.6s16.5 20.2 10.6 32l-22.3 44.6c8.3 6.7 15.7 14.4 22 22.9H584c30.9 0 56 25.1 56 56s-25.1 56-56 56H512v18.7c19.1 13.4 35.2 31.7 46.1 53.3h49.9c13.3 0 24 10.7 24 24s-10.7 24-24 24H558.2C547.1 452.7 492.4 496 428 496c-66.3 0-121.2-45.7-135.8-106.7L279.3 387c-13.5 10.1-29.8 15.7-47.3 15.7H204.5c-12.2 13.8-29.9 22.5-49.5 22.5c-37.3 0-67.5-30.2-67.5-67.5S117.7 290.2 155 290.2c19.6 0 37.3 8.7 49.5 22.5h27.5c6.9 0 13.5-2.3 18.8-6.4l-26-19.4c-8.3-6.2-13.3-15.9-13.3-26.2c0-18.1 14.7-32.8 32.8-32.8H280V148.2l-12.8 25.6c-6.7 13.4-23 18.9-36.4 12.1s-18.9-23-12.1-36.4L264.2 96H240V56c0-13.3 10.7-24 24-24h48zm40 64H320v32h40V96zM155 362.2c-13.7 0-24.8 11.1-24.8 24.8s11.1 24.8 24.8 24.8s24.8-11.1 24.8-24.8s-11.1-24.8-24.8-24.8zm273 0c-13.7 0-24.8 11.1-24.8 24.8s11.1 24.8 24.8 24.8s24.8-11.1 24.8-24.8s-11.1-24.8-24.8-24.8z"/></svg>
