<svg version="1.2" xmlns="http://www.w3.org/2000/svg" viewBox="0 0 1280 1134" width="1280" height="1134">
	<title>icononly_transparent_nobuffer</title>
	<style>
		.s0 { fill: #ffffff } 
	</style>
	<path id="Path 0" fill-rule="evenodd" class="s0" d="m708.5 1.8c2.8 0.2 7.7 1.1 11 1.9 3.3 0.8 8.7 2.9 12 4.6 3.3 1.8 9 6.1 12.6 9.7 3.7 3.6 43.6 51.2 88.8 105.8 52.1 62.9 82.7 99.2 83.9 99.2 0.9 0 18.1-3.9 38.2-8.6 20.1-4.6 39.2-9 42.5-9.5 3.3-0.6 10-0.8 15-0.5 5 0.3 11.7 1.2 15 2.1 3.3 0.9 9.6 3.3 14 5.3 4.4 2.1 10 5.4 12.5 7.3 2.5 1.8 38.1 37.1 79 78.4 40.9 41.2 90.2 90.9 144.5 145.5l0.1 8.8c0 4.8 0.2 22.6 0.3 39.7 0.1 17.1-0.3 37.3-0.9 45-0.5 7.7-1.5 18.5-2.1 24-0.5 5.5-1.9 16.5-3 24.5-1.1 8-3.6 22.4-5.5 32-1.9 9.6-5.7 26.3-8.5 37-2.7 10.7-8.1 28.7-11.9 40-3.7 11.3-9 26.1-11.8 33-2.7 6.9-7.6 18.4-10.7 25.5-3.2 7.1-9 19.5-13.1 27.5-4 8-11.4 21.7-16.4 30.5-5.1 8.8-14.7 24.3-21.5 34.5-6.7 10.2-16 23.5-20.5 29.5-4.6 6-12 15.5-16.4 21-4.5 5.5-13.3 15.9-19.7 23-6.4 7.1-19.9 21.1-30 31-10.1 9.9-23.6 22.5-29.9 27.9-6.3 5.4-17.1 14.2-24 19.6-6.9 5.4-17.5 13.3-23.5 17.6-6 4.3-17.2 11.7-24.8 16.6-7.5 4.8-20.6 12.7-29 17.5-8.3 4.8-25.1 13.5-37.2 19.4-12.1 5.9-29 13.5-37.5 16.9-8.5 3.4-21.1 8.3-28 10.7-6.9 2.4-19.3 6.5-27.5 8.9-8.3 2.5-22 6.2-30.5 8.4-8.5 2.1-22.5 5.2-31 6.9-8.5 1.6-23.4 4.1-33 5.5-9.6 1.4-25.4 3.2-35 4.1-9.6 0.8-27.9 1.8-40.5 2.1-13.7 0.4-31.7 0.2-44.5-0.5-11.8-0.7-28-1.9-36-2.7-8-0.8-21.9-2.6-31-4-9.1-1.4-23-3.9-31-5.5-8-1.7-20.6-4.5-28-6.4-7.4-1.9-21.1-5.7-30.5-8.5-9.4-2.8-24.9-8.1-34.5-11.7-9.6-3.6-24.3-9.5-32.5-13-8.3-3.6-24.2-11.2-35.5-16.9-11.3-5.7-27.5-14.5-36-19.6-8.5-5.1-21.6-13.4-29-18.3-7.4-4.9-20-13.9-28-19.9-8-5.9-21-16.3-29-23-8-6.6-23.4-20.9-34.4-31.6-10.9-10.7-24.7-24.9-30.5-31.5-5.9-6.6-13.9-15.8-17.7-20.5-3.9-4.7-11.5-14.4-16.9-21.5-5.4-7.1-15.3-21.3-22-31.5-6.8-10.2-16.7-26.1-22-35.5-5.4-9.4-12.6-22.6-16-29.5-3.4-6.9-8.6-17.7-11.5-24-2.8-6.3-8.3-19.4-12.1-29-3.9-9.6-9.8-26.3-13.3-37-3.5-10.7-8.4-27.6-10.9-37.5-2.6-9.9-6.2-25.9-8.1-35.5-1.9-9.6-4.4-24-5.5-32-1.1-8-2.5-18.8-3-24-0.6-5.2-1.5-15.8-2.1-23.5-0.6-7.7-1.1-30-1-49.5 0-19.5 0.4-37.3 0.8-39.6 0.4-2.3 1.4-5 2.3-6 0.9-1 19.5-22.2 41.5-46.9 21.9-24.8 55.8-63 75.3-85 19.6-22 42.1-46.7 50.1-54.9 8-8.1 18.1-17.7 22.5-21.3 4.4-3.5 11.6-8.7 16-11.4 4.4-2.7 11.8-6.3 16.5-8 6.7-2.5 10.7-3.3 18.5-3.7 7.2-0.3 12.4 0 18.5 1.3 4.7 0.9 11.2 2.8 14.5 4.1 3.3 1.3 8.8 4.3 12.3 6.7 4.3 2.9 11.4 10 23 23.2 9.2 10.4 27.8 31.7 41.2 47.3 13.5 15.5 24.7 28.3 25 28.3 0.3 0 62.6-66.8 138.5-148.3 75.9-81.6 140.9-151.2 144.5-154.8 4-4 9.2-7.9 13.5-10.1 3.9-2 8.6-4.2 10.5-4.8 1.9-0.6 6.4-1.5 10-1.9 3.6-0.4 8.7-0.6 11.5-0.4zm-25 25.4c-3.2 2.1-45.7 47-116.3 122.8-61.2 65.7-114.2 122.8-117.8 126.8l-6.4 7.2h64c5.2 5.2 6 6.9 6 9.5 0 2.5-0.8 4.3-2.9 6.5l-2.9 3-82.7 0.1-24.3 26.4 108 1c4 4.5 4.8 6.7 4.8 9 0 2.5-0.8 4.3-2.9 6.5l-2.9 3c-121.2 0-126.5-0.1-129.8-1.7-2.5-1.2-10.1-9.4-23.8-25.3-11-12.9-30.9-35.9-44.1-51-13.3-15.1-25.7-28.8-27.6-30.4-1.8-1.6-5.6-3.9-8.4-5.1-2.7-1.2-8.3-3-12.2-3.9-4-0.9-9.7-1.6-12.5-1.6-2.9 0-7.8 0.7-10.8 1.6-3 0.9-8.4 3.1-12 4.9-3.6 1.8-10.3 6.1-15 9.6-4.7 3.5-14.6 12.4-22.1 19.9-7.4 7.4-44.1 47.9-81.4 90-37.3 42.1-70.3 79.2-73.2 82.5l-5.3 6 60.2 1c4 4.6 4.8 6.7 4.8 9.3 0 2-0.7 4.7-1.5 6-0.8 1.2-3.2 2.6-5.2 3.2-2.2 0.6-17.5 1-35 1h-31.3v24h110c4.7 4.7 6 7.1 6 8.5 0 1.4-0.4 3.6-1 5-0.6 1.4-2.3 3.2-4 4-2.6 1.3-11 1.5-57.2 1.5h-54.3c1.2 20.5 2.3 33.9 3.1 43 0.8 9.1 2.4 22.8 3.5 30.5 1.1 7.7 3.6 21.9 5.5 31.5 1.9 9.6 5.1 23.8 7 31.5 1.9 7.7 5.3 20.1 7.5 27.5 2.3 7.4 6.9 21.4 10.4 31 3.5 9.6 9.3 24.3 12.8 32.5 3.6 8.3 8.2 18.6 10.2 23 2.1 4.4 7.2 14.4 11.4 22.3l7.6 14.2 83-0.5c4.9-35.6 6.4-46.8 6.4-47.7 0.1-1.6-0.2-1.6-3.1 0.3-1.8 1.1-8.7 4.7-15.3 7.9-6.6 3.2-16.7 7.5-22.5 9.5-5.8 2-16.8 5.2-24.5 7.1-7.7 1.9-15 3.4-16.2 3.4-1.3 0-3.6-0.7-5.3-1.5-1.6-0.8-3.4-2.4-4-3.5-0.5-1.1-1-3.7-1-5.7 0.1-3 0.8-4.4 3.3-6.6 1.8-1.5 7.3-5.7 12.2-9.3 5-3.5 13.5-10.5 19-15.3 5.5-4.9 14.7-14.2 20.5-20.6 5.8-6.4 13.8-16 17.9-21.4 4.1-5.3 11.1-15.2 15.7-22.1 4.5-6.9 10.5-16.4 13.3-21.2 3.1-5.3 5.1-10 5.1-11.8v-3c-6.6 5.2-12.1 9.1-16.5 12-4.4 2.8-12.5 7.3-18 10-5.5 2.6-16.1 6.9-23.5 9.4-7.4 2.5-18.4 5.7-24.5 7.1-6 1.4-12.7 2.5-14.7 2.5-2.9 0-4.5-0.7-6.8-3-2.2-2.2-3-3.9-3-6.5 0-1.9 0.3-4.3 0.8-5.2 0.4-0.9 3.9-3.8 7.7-6.4 3.9-2.5 9.9-7 13.5-9.9 3.6-2.8 10.3-8.6 14.9-12.8 4.7-4.2 12.9-12.7 18.4-18.7 5.5-6 14.3-16.9 19.7-24 5.4-7.1 12.9-18 16.8-24 3.8-6 9.9-16.3 13.6-22.7 3.6-6.5 6.6-12 6.6-12.3 0-0.3-3.7 2-8.2 5.1-4.6 3.1-12.5 7.6-17.5 10-5.1 2.4-14.6 6.1-21 8.3-6.5 2.1-15.2 4.7-19.3 5.6-5.5 1.3-8.3 1.5-10.5 0.8-1.8-0.6-3.8-2.4-4.9-4.4-1.3-2.4-1.7-4.4-1.2-6.6 0.5-2.6 2.3-4.5 8.9-9.5 4.5-3.4 13.4-11.4 19.7-17.8 6.3-6.3 14.4-15.3 18-19.9 3.6-4.5 9.3-12.2 12.7-16.9 3.4-4.8 9.5-14.1 13.5-20.7 4-6.6 10.2-17.6 13.8-24.5l6.5-12.6c-9.3 6.6-16.7 10.7-22.5 13.5-5.8 2.7-14.8 6.4-20 8.1-5.2 1.7-12.4 3.6-16 4.2-5.7 1.1-6.8 1-9.2-0.5-1.6-0.9-3.1-2.9-3.4-4.4-0.3-1.6-0.1-3.9 0.6-5.3 0.6-1.4 5.2-5.6 10.2-9.5 4.9-3.9 12.8-11 17.6-16 4.7-4.9 11.3-12.4 14.5-16.5 3.3-4.1 9-12 12.7-17.5 3.7-5.5 9.3-14.5 12.5-20 3.3-5.5 8.9-16.3 12.6-24 3.6-7.7 7.9-17.3 9.5-21.3 1.6-4 3.4-7.2 3.9-7.2 0.6 0 2.5 3.9 4.4 8.8 1.9 4.8 6.7 15.2 10.6 23.2 4 8 10 19.2 13.5 25 3.4 5.8 9 14.6 12.5 19.5 3.5 5 9.9 13.3 14.2 18.5 4.4 5.2 12 13.3 16.9 17.8 4.9 4.6 11.5 10.3 14.6 12.5 3.1 2.3 6.2 5.3 6.8 6.7 0.7 1.5 0.8 3.7 0.3 5.4-0.4 1.6-1.7 3.5-2.8 4.3-1.1 0.7-3.4 1.3-5 1.3-1.6 0-7-1.1-12-2.5-4.9-1.3-12.1-3.6-16-5-3.9-1.5-10.6-4.5-15-6.7-4.4-2.2-10.9-6-14.5-8.6l-6.5-4.6c9.9 18.5 15.5 28.4 18.8 33.9 3.3 5.5 9 14.5 12.7 20 3.7 5.5 10.3 14.5 14.7 20 4.3 5.5 11.9 14.2 16.9 19.4 4.9 5.1 13.4 13 18.9 17.4 5.5 4.4 10.6 9.2 11.4 10.6 1 2 1.1 3.4 0.2 6.4-0.8 2.7-2 4.2-4.6 5.5-3.4 1.6-3.9 1.6-11.3-0.2-4.2-1-13.1-3.6-19.7-5.8-6.6-2.2-16-5.9-21-8.3-4.9-2.3-12.7-6.8-17.2-9.9-4.6-3.1-8.3-5.3-8.3-4.8 0 0.4 3.3 6.3 7.2 13.2 3.9 6.9 10.4 17.7 14.6 24 4.1 6.3 10.2 15.1 13.5 19.5 3.3 4.4 8.1 10.5 10.6 13.6l4.6 5.7c6.3-8.8 10.8-14.2 14.1-17.7 3.2-3.5 10.2-9.6 15.4-13.5 5.2-3.9 13.6-9.2 18.5-11.8 5-2.5 13.1-5.9 18-7.6 5-1.6 13.3-3.7 18.5-4.6 5.3-0.9 15.1-1.6 22-1.6 6.9 0 16.4 0.7 21.3 1.5 4.8 0.8 12.3 2.6 16.7 4l8 2.5c8.9-7.5 13.8-11.3 16.5-13.2 2.8-2 7.5-4.8 10.5-6.3 3-1.5 8-3.6 11-4.7 3-1 8.5-2.6 12.3-3.3 3.7-0.8 8.2-1.5 10-1.5 3 0 6.2-3.4 55.2-60.5 31.3-36.4 53-60.9 54.5-61.4 1.4-0.5 3.6-0.7 5-0.5 1.4 0.3 3.5 1.4 4.7 2.7 1.2 1.2 8.8 13 16.8 26.2 8.1 13.2 15.9 25.6 17.3 27.5 1.5 1.9 4.6 4.8 7 6.5 2.4 1.6 6.5 3.8 9 4.8 3.1 1.2 7.3 1.9 12.2 1.9 7 0 9.9-0.9 46.5-13.5 21.5-7.4 43.7-15.2 49.5-17.2 6.1-2.2 13.2-4 17-4.3 3.7-0.2 8.9 0.1 12 0.8 3 0.7 8.1 2.7 11.4 4.4 3.2 1.7 8.1 5.6 11 8.6 3.7 4 6.8 9.2 11.5 19 4.3 8.9 6.5 14.8 6.5 17.3 0.1 3.2-0.5 4.4-3.4 6.9-3 2.6-4 3-7 2.4-1.9-0.3-4.5-1.6-5.6-2.8-1.2-1.3-4.6-7.7-7.5-14.3-3.9-8.6-6.6-13.2-9.6-16.2-3.2-3.2-5.8-4.7-10-5.9-3.7-1-7.1-1.3-9.3-0.9-1.9 0.4-11.1 3.4-20.5 6.7-9.4 3.3-17.5 6.4-18 6.9-0.6 0.5 4 14.7 13 39.4 12.8 35.2 14.2 38.5 16 38 1.1-0.4 9-0.9 17.5-1.2 12.1-0.5 17.8-0.2 26 1.2 5.8 0.9 14.5 3.1 19.5 4.7 5 1.7 13 5.1 18 7.6 5 2.6 12.6 7.3 17 10.6 4.4 3.2 11.4 9.3 15.5 13.5 4.2 4.2 10 11 12.9 15.1 2.9 4.1 7.2 11.3 9.6 16 2.3 4.7 5.5 11.9 6.9 16 1.5 4.1 3.6 12 4.8 17.5 1.6 7.5 2.1 13.7 2.1 24.5 0 9.4-0.5 17.5-1.6 23-0.9 4.7-2.8 12.1-4.3 16.5-1.4 4.4-4.4 11.6-6.5 16-2.1 4.4-6.2 11.6-9.1 15.9-2.9 4.4-8.7 11.6-12.8 15.9-4.1 4.4-10.2 10.1-13.5 12.7-3.3 2.6-9.1 6.7-13 9.1-3.9 2.3-10.4 5.7-14.5 7.6l-7.5 3.3h160c2.8-20.5 4-27.6 4.3-28.8 0.7-2.2 0-2-8.8 2.6-5.2 2.8-14 6.6-19.5 8.5-5.5 1.9-14 4.4-19 5.7-5.1 1.3-10.2 2-11.7 1.6-1.6-0.3-3.5-1.3-4.3-2.1-0.8-0.8-1.5-3.1-1.5-5 0-3.3 0.7-4 11.3-11.9 6.1-4.6 16.2-13.5 22.2-19.7 6.1-6.3 13.8-15 17.1-19.4 3.3-4.4 8.3-11.4 11-15.5 2.8-4.1 6.7-10.2 8.7-13.5 2-3.3 4.1-7.6 4.7-9.5l1.1-3.5c-3.6 2.8-7.5 5.5-11.1 7.9-3.6 2.4-9.4 5.8-13 7.6-3.6 1.8-11.7 5-18 7.1-6.3 2-15.2 4.6-19.7 5.6-8.2 1.8-8.3 1.8-11-0.3-2-1.5-2.9-3.1-3-5.7-0.3-3.6 0-3.9 9.5-10.8 5.3-3.9 15.3-12.8 22.3-19.8 6.9-6.9 16.1-17.4 20.5-23.3 4.3-5.8 10.6-15.1 14-20.5 3.3-5.4 7.5-12.4 9.2-15.5l3.2-5.8c-6.6 4.4-11.9 7.4-16 9.5-4.1 2.1-9.7 4.6-12.5 5.7-2.7 1.1-9.2 3-14.2 4.4-7.9 2-9.7 2.2-11.8 1.2-1.4-0.7-2.9-2.4-3.4-3.8-0.4-1.4-0.5-3.4-0.1-4.5 0.4-1.1 2.5-3.3 4.6-4.9 2.2-1.6 8.1-7 13.3-12 5.1-5 12.1-12.7 15.6-17.1 3.4-4.4 8.9-12 12.2-17 3.3-5 8.2-13 11-18 2.8-5 5.8-10.5 6.7-12.2l1.6-3.3c-9.7 6.2-17 9.8-22.5 11.9-5.5 2.2-12.8 4.5-16.3 5.3-4.7 1-6.7 1-8 0.2-0.9-0.6-2.1-1.8-2.6-2.5-0.5-0.8-0.6-2.5-0.2-3.9 0.4-1.5 3.4-4.6 7.2-7.5 3.6-2.7 9.7-8.4 13.6-12.5 3.9-4.1 9.6-10.9 12.7-15 3.1-4.1 8.4-12.2 11.9-18 3.5-5.8 8.5-15 11.1-20.5 2.6-5.5 5.6-12.2 6.7-14.8 1-2.6 2.4-4.8 2.9-4.8 0.5 0 2.3 3.1 3.9 6.8 1.6 3.7 4.8 10.6 7.1 15.3 2.4 4.7 6.7 12.6 9.6 17.5 2.9 5 8.7 13.5 12.9 19 4.1 5.5 10.7 13.1 14.5 17 3.8 3.9 9.6 9.1 12.8 11.5 4.1 3.2 5.8 5.2 5.7 6.8 0 1.2-0.5 3.1-1 4.2-0.7 1.4-2 2-4.5 2-1.9 0-7.9-1.4-13.2-3.1-5.4-1.7-13-4.7-16.8-6.6-3.8-2-8.2-4.4-9.7-5.4-1.6-1.1-3-1.9-3.3-1.9-0.3 0 0.9 2.8 2.6 6.3 1.8 3.4 6 10.9 9.5 16.7 3.4 5.8 9.6 15.1 13.8 20.8 4.2 5.6 11.1 13.9 15.4 18.3 4.2 4.5 11 10.8 15 14 3.9 3.3 7.5 6.9 7.8 8.2 0.3 1.2 0.1 3.2-0.5 4.5-0.6 1.2-2.1 2.6-3.3 3.1-1.5 0.5-4.6 0.3-8.3-0.5-3.3-0.8-10-2.8-15-4.5-5-1.7-11.9-4.6-15.5-6.4-3.6-1.8-8.2-4.5-10.2-5.9-2.1-1.4-4-2.6-4.3-2.6-0.3 0 1.1 3 3.1 6.8 2 3.7 7.8 13 12.9 20.7 5.1 7.7 12.9 18.3 17.3 23.5 4.3 5.2 11.6 13 16.1 17.3 4.4 4.2 12.4 10.8 17.6 14.7 5.2 3.9 10 8 10.6 9.3 0.9 1.7 0.8 2.9-0.2 5.2-0.8 1.6-2.5 3.4-3.9 3.9-1.8 0.7-5.5 0.2-13.5-1.6-6-1.4-16-4.5-22-6.7-6-2.3-14.2-6-18-8.2-3.8-2.2-9.4-5.7-12.2-7.9-4.6-3.5-5.3-3.7-5.3-2 0 1.1 3.2 7.3 7.1 13.8 3.9 6.4 11 16.9 15.7 23.2 4.8 6.3 13.8 16.7 20.2 23.1 6.3 6.4 15.2 14.4 19.8 17.8 4.5 3.3 8.5 6.1 9 6.1 0.4 0 3.6-6.2 7.1-13.7 3.6-7.6 8.7-19 11.4-25.3 2.6-6.3 7.4-18.7 10.7-27.5 3.2-8.8 7.9-22.7 10.3-31 2.5-8.2 6.4-22.2 8.6-31 2.2-8.8 5.3-23 7-31.5 1.6-8.5 3.9-21.8 5-29.5 1.1-7.7 2.8-21.9 3.8-31.5 1.4-13.6 1.8-26.5 1.8-58.2v-40.8l-77-77h-106.5c-5.2-5.2-6-6.9-6-9.5 0-2.5 0.8-4.3 2.9-6.5l2.9-3h87.7l-24-24c-143.4 0-181.4-0.4-183.5-1-1.9-0.5-4.4-1.9-5.5-3.1-1.3-1.3-2-3.5-2-6 0-2.9 0.7-4.6 2.8-6.6l2.7-2.8 166-1c-64.6-64.7-76.7-76-81.2-78.8-3.5-2.1-9.2-4.7-12.8-5.8-4.4-1.4-9.4-2.1-15.5-2.2-8 0-13.8 1.1-52.7 10.1l-43.8 10.2c-111.3 0-120.4-0.2-123-1.5-1.6-0.8-3.5-2.4-4-3.5-0.5-1.1-1-3.1-1-4.5 0-1.4 0.5-3.5 1-4.7 0.6-1.3 2-2.9 3.3-3.6 1.7-0.9 14.2-1.3 52-1.5l49.7-0.2-17.2-21-48-1c-4.5-5-5.8-7.6-5.8-9 0-1.4 0.5-3.6 1-5 0.5-1.4 2-3.1 3.3-3.7 1.3-0.8 8-1.5 17.1-1.8l14.9-0.5c-111.7-134.8-127.1-152.7-130.9-155.2-2.7-1.7-7-3.8-9.6-4.7-2.7-0.9-7.8-1.6-11.5-1.5-3.8 0-8.8 0.7-11.3 1.4-2.5 0.8-6.7 2.9-9.5 4.7zm-114.5 498.8c191.2 0.6 199 0.8 205.5 2.5 3.9 1 10.6 3.3 15 5.2 4.7 2 7.8 2.9 7.4 2.1-0.3-0.7-5-13.7-10.4-28.8-5.4-15.1-10-27.7-10.2-28-0.2-0.3-10.2 2.7-22.1 6.7-15.7 5.3-23.8 7.4-29.2 7.9-5.2 0.4-9.8 0.1-15-1-4.1-0.9-10.4-3-14-4.8-3.6-1.8-9.4-6-13-9.4-5.3-5.1-8.7-10-18.7-26.8-6.7-11.3-12.5-20.6-13-20.6-0.4 0-19.1 21.4-41.5 47.5zm-50 25.9c-4.2 1.7-10.6 5.4-14.3 8.1l-6.7 5c13.3 9.7 20.4 15.7 24.3 19.6 3.9 3.9 9 9.5 11.3 12.5 2.3 3 6.5 9.2 9.3 13.9 2.8 4.7 6.5 12.1 8.2 16.5 1.7 4.4 4.2 12.3 5.6 17.5 1.9 7.5 2.6 12.9 3 25.5 0.4 12.7 0.2 18.1-1.2 26-1 5.5-3 13.8-4.6 18.5-1.5 4.7-4.4 11.9-6.4 16-2.1 4.1-6.3 11.3-9.4 16-3.1 4.7-9.9 12.8-15.1 18-5.3 5.2-12.9 11.8-17 14.7-4.2 2.8-11.6 7.1-16.5 9.6-5 2.4-9.7 4.7-10.5 5-0.9 0.3 71.6 0.6 161 0.6 89.3 0 161.8-0.3 161-0.6-0.9-0.3-5.6-2.6-10.5-5-5-2.5-12.4-6.8-16.5-9.6-4.2-2.9-11.8-9.5-17.1-14.7-5.2-5.2-12-13.3-15.1-18-3.1-4.7-7.3-11.9-9.4-16-2-4.1-4.9-11.3-6.5-16-1.5-4.7-3.5-12.5-4.4-17.5-0.9-5.2-1.6-14.7-1.6-22.5 0-8 0.7-16.9 1.6-22 0.8-4.7 2.7-12.1 4.1-16.5 1.4-4.4 4.1-11.4 6-15.5 1.9-4.1 6.3-11.8 9.8-17 3.5-5.2 9.9-13.1 14.2-17.5 4.3-4.4 11-10.3 14.9-13.2 3.8-2.9 10.7-7.4 15.3-10 7.6-4.4 8.2-4.9 6.5-6.1-1-0.8-4.6-2.7-7.8-4.4-3.3-1.7-9.4-3.9-13.5-4.9-7.1-1.8-12.4-1.9-90.5-1.9l-83 0.1c22.4 9.3 36.2 15 45 18.6 8.7 3.6 18 7.9 20.5 9.6 2.4 1.8 6.4 5.2 8.8 7.7 2.3 2.5 5.7 7.4 7.6 11 1.8 3.6 3.8 9.2 4.5 12.5 0.8 3.6 1.1 9.6 0.8 15-0.3 6.4-1.2 10.7-2.9 15-1.4 3.3-14.7 26.3-29.7 51l-27.2 45 35.2 1c4 4.5 4.9 6.7 4.9 9 0 2.5-0.9 4.4-3 6.5l-2.9 3h-55.1c-5.5-5.4-6-6.7-5.8-9.7 0.3-2.9 7.9-16.2 32.5-57 18.5-30.5 33-55.5 33.9-58.5 1.1-3.6 1.5-7.2 1.2-11.3-0.3-3.3-1.4-8-2.5-10.5-1.1-2.5-3.7-6.5-5.9-8.9-2.2-2.4-5.5-5.1-7.4-6.1-2-1-26.2-11-53.8-22.4-36.3-14.9-51.3-20.6-54-20.5-2.1 0-6.5 0.7-9.7 1.4-3.3 0.7-9.4 2.7-13.5 4.4zm-118.5 20.1c-3.9 1.3-9.7 3.5-13 5-3.4 1.4-9.3 4.7-13.3 7.3-4 2.6-11.3 8.7-16.3 13.5-5 4.8-11.3 11.9-13.9 15.7-2.6 3.9-6.1 9.7-7.8 13-1.6 3.3-4.1 9.2-5.5 13-1.4 3.9-3.3 10.8-4.2 15.5-0.9 4.7-1.6 13.6-1.6 20 0 6.3 0.7 15.1 1.5 19.5 0.8 4.4 2.6 11.2 3.9 15 1.3 3.9 4.4 11.1 7 16 2.5 5 7.5 12.6 11 17 3.5 4.4 9 10.3 12.3 13.1 3.2 2.8 8.1 6.7 10.9 8.7 2.7 1.9 9.2 5.6 14.5 8.1 5.2 2.5 13.5 5.7 18.5 7.2 7 2 12 2.7 23 3.2 9 0.3 16.8 0.1 22-0.7 4.3-0.7 11.6-2.4 16-3.8 4.3-1.4 11.3-4.2 15.5-6.3 4.1-2.1 10.6-6 14.5-8.8 3.8-2.7 10.2-8.2 14.3-12.3 4-4.1 9.7-11 12.6-15.4 2.9-4.4 6.4-10.2 7.8-13 1.4-2.7 3.7-8.4 5.1-12.5 1.4-4.1 3.2-11.5 4.1-16.5 0.9-4.9 1.6-13 1.6-18-0.1-4.9-0.7-13-1.5-18-0.8-4.9-2.6-12.1-3.9-16-1.3-3.8-4-10.4-6.1-14.5-2.1-4.1-5.6-10.2-7.8-13.5-2.2-3.3-8.2-10-13.2-15-5-5-12.1-10.9-15.8-13.2-3.7-2.4-7.1-4.1-7.5-3.9-0.4 0.2-12.4 25.5-26.6 56.2-14.6 31.6-26.9 56.9-28.3 58.2-1.6 1.5-3.6 2.2-6.3 2.2-3 0-4.7-0.7-6.5-2.5-1.8-1.8-2.6-3.6-2.6-6.2 0-2.8 6.1-16.8 23.9-55.3 13.1-28.3 24.8-53.4 26-55.7 1.2-2.4 2.2-4.6 2.2-5 0-0.4-1.7-1.3-3.8-2-2.1-0.7-7.8-1.9-12.7-2.8-5-0.8-13.5-1.5-19-1.4-5.5 0-13.2 0.7-17 1.4-3.9 0.6-10.2 2.2-14 3.5zm428.5-3.5c3.9 9.3 11.7 32.8 20 58.3 8.2 25.4 15 47.5 15 49 0 1.5-0.9 4-2 5.5-1.2 1.6-3.4 2.9-5.3 3.3-1.8 0.3-4.5 0-6.1-0.8-1.6-0.7-3.5-2.4-4.2-3.8-0.7-1.4-6.7-19.4-13.4-40-6.6-20.6-13.7-42-15.7-47.5-2-5.5-4.5-11.7-5.5-13.7-1-2.1-2.3-4-2.8-4.3-0.6-0.3-4.5 1.2-8.8 3.3-4.3 2.1-10.7 5.8-14.2 8.2-3.6 2.4-10.4 8.2-15.2 12.9-5 5.1-11.2 12.6-14.8 18.1-3.3 5.2-7.5 13.1-9.2 17.5-1.7 4.4-4 11.4-5.1 15.5-1.8 6.3-2.1 10.4-2.1 25 0 15.6 0.3 18.5 2.5 27 1.4 5.2 4.2 13.1 6.3 17.5 2 4.4 6.1 11.6 9 16 3 4.4 8.7 11.3 12.7 15.4 4 4.1 10.5 9.6 14.4 12.3 3.8 2.8 10.3 6.7 14.5 8.8 4.1 2.1 11.1 4.9 15.5 6.3 4.3 1.4 11.6 3.1 16 3.8 5.2 0.8 12.8 1 22 0.6 9.2-0.4 16.3-1.2 21-2.5 3.8-1.1 9-2.7 11.5-3.6 2.4-1 8.3-3.7 13-6.1 4.6-2.4 12.1-7.3 16.5-10.8 4.3-3.5 10.2-9 13.1-12.3 2.8-3.2 6.6-8.1 8.6-10.9 1.9-2.7 5.2-8.4 7.3-12.5 2-4.1 4.8-10.6 6.1-14.5 1.3-3.8 3.1-10.6 3.9-15 0.8-4.4 1.5-13.4 1.4-20 0-7.7-0.6-15.2-1.8-21-1.1-4.9-3.3-12.6-5-17-1.7-4.4-5.5-12-8.4-17-3.9-6.6-8.2-11.9-16.2-20.1-7.6-7.6-13.7-12.7-19.5-16.2-4.7-2.9-12.2-6.6-16.5-8.3-4.4-1.7-11.4-4-15.5-5.1-5.3-1.4-11.7-2.1-21.5-2.3-7.8-0.2-15.7 0-17.8 0.3zm-548 68c0.4 2.3 3.2 8.4 6.6 14 3.3 5.5 8.4 13.8 11.4 18.4l5.5 8.3c1.9-19.1 2.4-25.1 2.1-25.7-0.2-0.5-3.4-2.8-7.2-5.1-3.8-2.3-9.7-6.4-13-9l-6-4.9zm18.2 134.3l3.3 24.3 86-0.1c-9.3-3.9-14.5-6.5-17.5-8.2-3.1-1.7-7.8-4.7-10.5-6.6-2.8-1.9-7.5-5.6-10.5-8.2-4.1-3.5-7.9-5.6-14.5-7.9-5-1.8-13.8-5.5-19.5-8.2-5.8-2.7-12.7-6.3-15.3-7.9-2.6-1.6-4.8-2.6-4.8-2.2 0 0.4 1.5 11.7 3.3 25zm836.3 23.7l45 0.6c4.2-7.8 5.3-10.2 5.2-10.4-0.1-0.1-4.5-1.3-9.7-2.5-5.3-1.3-13.8-3.9-19-5.8-5.3-2-13.1-5.5-17.5-7.8l-8-4.3zm-1012.5 39l12 18.5c219 0 234.3 0.2 237 1.5 1.6 0.8 3.4 2.4 4 3.5 0.5 1.1 1 3.5 1 5.3 0 2.2-0.8 4.1-2.6 6l-2.7 2.7h-221.7c2.9 4.3 7.9 10.5 12.9 16.5 5.1 6.1 14.5 16.8 20.9 23.8l11.7 12.8c266.9 0.4 268.4 0.4 270.5 2.4 1.1 1.1 2.3 3.8 2.7 6 0.5 3.6 0.3 4.4-2.5 7.3l-3.1 3.2-248.6-0.1c10 9.2 16.8 15.1 21.5 19.2 4.6 4.1 14.6 12.3 22.2 18.2l13.8 10.7 202.1 0.5c5.7 6.5 6 7.6 5.5 10.5-0.3 1.9-1.8 4.6-3.2 6l-2.5 2.5-173.4 0.5c13.9 8.8 24.5 15.2 32.5 19.8 7.9 4.6 23.5 12.9 34.5 18.3l20 9.9h196.5c3.8 4.7 5 7.1 5 8.5 0 1.4-0.7 3.8-1.4 5.3-0.7 1.5-2.2 3.2-3.3 3.7-1.1 0.6-28.9 1.2-74.3 1.5l-72.5 0.5c20.1 6.5 31.8 10.1 39 12.1 7.1 2 19.7 5.1 28 6.9 8.2 1.9 21.5 4.5 29.5 5.9 7.9 1.4 21.9 3.5 31 4.6 9 1.1 23.2 2.5 31.5 3.1 8.2 0.6 27.8 1.1 43.5 1.1 15.6 0 35.2-0.5 43.5-1.1 8.2-0.6 22.4-2 31.5-3.1 9-1.1 23-3.2 31-4.6 7.9-1.4 20.5-3.9 28-5.5 7.4-1.6 18.4-4.3 24.5-6 6-1.6 18.6-5.3 28-8.2l17-5.2-196.7-1c-4-4.6-4.9-6.7-4.9-9.2 0-2.7 0.7-4.6 2.5-6.5l2.6-2.8h245.5c31-15.3 46.5-23.6 54.5-28.2 7.9-4.6 18.5-11 23.5-14.1l9-5.7c-75.8 0-83.1-0.2-86-1.5-2-0.8-4-2.4-4.5-3.5-0.6-1.1-1-3.6-1-5.5 0-2.3 0.8-4.5 2.4-6.2l2.4-2.8 115.7-0.6c20.9-16.6 30.8-24.7 35.5-28.8 4.6-4.1 11.4-10 15-13.3l6.5-5.9-95.5 0.1c-5.2-5.2-6-6.9-6-9.5 0-2.3 0.8-4.5 2.4-6.2l2.4-2.8 115.7-0.5c19.3-21.1 29.6-32.9 35.3-39.9l10.3-12.6c-133.9-0.9-144.1-1.2-145.5-2.5-1-0.8-2.2-2.8-2.7-4.5-0.6-1.8-0.7-3.9-0.1-5.5 0.5-1.4 1.9-3.4 3.1-4.5 2.2-1.9 3.9-2 81.2-2.2l78.9-0.3c18.6-28.7 24-37.2 24-37.5 0-0.3-238.1-0.5-529-0.5-291 0-529 0.2-529 0.5 0 0.3 5.4 8.8 12 19zm662.9-650l2.8 2.8c2.1 2.1 2.8 3.7 2.8 6.8 0 3.2-0.6 4.6-2.8 6.5-1.5 1.4-4.6 2.7-7 3-2.3 0.3-10.7 0.4-32.9-0.1l-2.9-3.2c-1.8-2-2.9-4.4-2.9-6 0-1.5 0.7-3.9 1.6-5.2 0.8-1.3 2.5-3 3.7-3.7 1.6-1.1 6.3-1.3 37.6-0.9zm-216.4 100.5c11.9 0 17.2 0.4 19.2 1.4 1.5 0.7 3.4 2.6 4.1 4.2 0.7 1.6 1.1 4.2 0.8 5.7-0.4 1.5-1.7 3.8-3.1 5.2-2.4 2.5-2.6 2.5-37.5 2.5l-3.2-3.2c-2.8-2.9-3.1-3.7-2.6-7.3 0.4-2.5 1.6-4.8 3.3-6.2 2.4-2.2 3.4-2.3 19-2.3zm148.2 23.1c5.2-0.1 10.4 0.6 14 1.7 3.2 1 8.2 3.3 11.2 5.2 3 2 7.2 5.5 9.3 8 2.2 2.5 5 6.7 6.4 9.3 1.3 2.6 3.1 7.5 4 11 1.1 4.3 1.4 8.5 1.1 13.7-0.3 4.2-1.6 10.1-2.8 13.5-1.3 3.3-4.2 8.4-6.4 11.3-2.2 2.8-6.5 7-9.5 9.3-3.1 2.2-8 4.9-11 6.1-3.1 1.1-8.7 2.2-12.5 2.5-3.9 0.3-9.5 0.1-12.5-0.6-3.1-0.6-8.5-2.5-12-4.3-3.7-1.8-8.8-5.5-11.8-8.5-3.4-3.4-6.6-8.1-8.9-13-3.2-6.7-3.8-9-4.2-16.8-0.3-6.6 0-10.6 1.3-15 0.9-3.3 2.9-8 4.3-10.5 1.5-2.5 4.5-6.4 6.7-8.8 2.2-2.4 6.3-5.8 9.1-7.5 2.7-1.7 7.4-3.9 10.5-4.9 3.2-1 8.8-1.7 13.7-1.7zm279 48c19.2-0.1 19.3-0.1 21.8 2.4 1.3 1.4 2.7 3.8 3.1 5.3 0.3 1.5-0.1 4-0.8 5.6-0.7 1.6-2.2 3.5-3.3 4.3-1.6 1-6.7 1.3-21.3 1.3-10.8 0-20.1-0.4-21.2-1-1.1-0.5-2.7-2.6-3.5-4.5-1.2-2.7-1.3-4.3-0.5-7 0.6-2.2 2-4 3.7-4.9 2.1-1.2 7.1-1.5 22-1.5zm-385.9 497.4l2.6 2.5c1.4 1.4 2.7 3.6 2.9 5 0.3 1.4-0.2 4-0.9 5.8-0.8 1.8-2.3 3.7-3.4 4.2-1.3 0.7-31.4 1-166 1l-2.5-3c-1.4-1.6-2.5-4.1-2.5-5.5 0-1.4 0.4-3.6 1-5 0.5-1.4 2.2-3.1 3.7-4 2.4-1.2 14.1-1.4 165.1-1zm263.3 0l2.4 2.8c1.7 1.9 2.5 3.9 2.5 6.7 0 2.9-0.7 4.7-5 9h-224l-2.5-3c-1.4-1.6-2.5-4.2-2.5-5.7 0-1.5 0.7-3.9 1.6-5.2 0.8-1.3 2.5-3 3.7-3.7 1.8-1.1 22.1-1.3 223.8-0.9zm-360.3 71.5h108.6c89.7 0 109 0.3 111.3 1.4 1.5 0.7 3.4 2.6 4.1 4.2 0.7 1.7 1.1 4.3 0.7 6.2-0.3 1.9-1.7 4-3.3 5.2-2.7 2.1-3.7 2.1-221.7 2.1l-2.8-2.8c-2.2-2.1-2.8-3.7-2.7-6.6 0.1-2.8 0.9-4.7 3-6.8zm265.3 0h30.4c23.7 0 31 0.3 33.2 1.4 1.5 0.8 3.3 2.7 4.1 4.3 0.7 1.5 1 4.1 0.7 5.6-0.3 1.5-1.7 3.9-5.5 7.7h-31.5c-19.1 0-32.4-0.4-33.6-1-1.1-0.5-2.6-2.4-3.4-4.2-0.8-1.9-1.1-4.4-0.7-6.2 0.3-1.6 1.9-3.9 3.4-5.2zm-241.9 67c19.2 0 24.4 0.3 26.8 1.5 1.6 0.8 3.4 2.4 4 3.5 0.5 1.1 1 3.3 1 5 0 1.6-0.5 3.9-1 5-0.6 1.1-2.6 2.7-4.5 3.5-2.8 1.2-8.3 1.5-26.3 1.5-19.6 0-23.2-0.3-26.2-1.8-1.9-0.9-4.1-2.8-4.8-4.2-0.7-1.4-1-3.9-0.7-5.5 0.3-1.7 1.3-3.9 2.1-4.9 0.9-1 2.5-2.2 3.7-2.7 1.2-0.4 12.9-0.8 25.9-0.9zm187.5 0c92.6 0 106.7 0.2 109.3 1.5 1.6 0.8 3.4 2.4 4 3.5 0.5 1.1 1 3.4 1 5.2 0 2-0.8 4.3-2.2 5.9-1.6 1.8-3.8 2.8-6.8 3.3-2.5 0.4-51.7 0.5-214 0.1l-2.5-2.5c-1.4-1.4-2.8-4.1-3.1-6-0.5-2.7-0.1-4.2 1.5-6.4 1.2-1.5 3.2-3.2 4.4-3.6 1.2-0.5 50-0.9 108.4-1z"/>
</svg>